<?xml version="1.0" standalone="no"?><svg xmlns="http://www.w3.org/2000/svg" viewBox="0 0 1440 320"><path fill="#D89756" fill-opacity="1" d="M0,256L34.3,213.3C68.6,171,137,85,206,96C274.3,107,343,213,411,229.3C480,245,549,171,617,128C685.7,85,754,75,823,80C891.4,85,960,107,1029,128C1097.1,149,1166,171,1234,154.7C1302.9,139,1371,85,1406,58.7L1440,32L1440,320L1405.7,320C1371.4,320,1303,320,1234,320C1165.7,320,1097,320,1029,320C960,320,891,320,823,320C754.3,320,686,320,617,320C548.6,320,480,320,411,320C342.9,320,274,320,206,320C137.1,320,69,320,34,320L0,320Z"></path></svg>